<svg xmlns="http://www.w3.org/2000/svg" xmlns:xlink="http://www.w3.org/1999/xlink" width="600" height="400" viewBox="0 0 2400 1600">
<defs>
  <clipPath id="clip920">
    <rect x="0" y="0" width="2400" height="1600"></rect>
  </clipPath>
</defs>
<path clip-path="url(#clip920)" d="M0 1600 L2400 1600 L2400 0 L0 0  Z" fill="#ffffff" fill-rule="evenodd" fill-opacity="1"></path>
<defs>
  <clipPath id="clip921">
    <rect x="480" y="0" width="1681" height="1600"></rect>
  </clipPath>
</defs>
<defs>
  <clipPath id="clip922">
    <rect x="148" y="47" width="2206" height="1440"></rect>
  </clipPath>
</defs>
<path clip-path="url(#clip922)" d="M1069.76 905.577 L1069.76 676.52 L1202 561.992 L1431.06 628.115 L1431.06 857.172 L1298.81 971.7 L1069.76 905.577  Z" fill="#ffffff" fill-rule="evenodd" fill-opacity="1"></path>
<polyline clip-path="url(#clip922)" style="stroke:#000000; stroke-linecap:round; stroke-linejoin:round; stroke-width:2; stroke-opacity:0.1; fill:none" points="699.09,1207.36 1114.55,847.562 1114.55,127.96 "></polyline>
<polyline clip-path="url(#clip922)" style="stroke:#000000; stroke-linecap:round; stroke-linejoin:round; stroke-width:2; stroke-opacity:0.1; fill:none" points="813.619,1240.42 1229.08,880.624 1229.08,161.022 "></polyline>
<polyline clip-path="url(#clip922)" style="stroke:#000000; stroke-linecap:round; stroke-linejoin:round; stroke-width:2; stroke-opacity:0.1; fill:none" points="928.147,1273.49 1343.61,913.685 1343.61,194.083 "></polyline>
<polyline clip-path="url(#clip922)" style="stroke:#000000; stroke-linecap:round; stroke-linejoin:round; stroke-width:2; stroke-opacity:0.1; fill:none" points="1042.68,1306.55 1458.14,946.746 1458.14,227.145 "></polyline>
<polyline clip-path="url(#clip922)" style="stroke:#000000; stroke-linecap:round; stroke-linejoin:round; stroke-width:2; stroke-opacity:0.1; fill:none" points="1157.2,1339.61 1572.67,979.808 1572.67,260.206 "></polyline>
<polyline clip-path="url(#clip922)" style="stroke:#000000; stroke-linecap:round; stroke-linejoin:round; stroke-width:2; stroke-opacity:0.1; fill:none" points="1271.73,1372.67 1687.19,1012.87 1687.19,293.267 "></polyline>
<polyline clip-path="url(#clip922)" style="stroke:#000000; stroke-linecap:round; stroke-linejoin:round; stroke-width:2; stroke-opacity:0.1; fill:none" points="1386.26,1405.73 1801.72,1045.93 1801.72,326.329 "></polyline>
<polyline clip-path="url(#clip922)" style="stroke:#000000; stroke-linecap:round; stroke-linejoin:round; stroke-width:2; stroke-opacity:0.1; fill:none" points="1411.84,1402.3 692.237,1194.57 692.237,474.972 "></polyline>
<polyline clip-path="url(#clip922)" style="stroke:#000000; stroke-linecap:round; stroke-linejoin:round; stroke-width:2; stroke-opacity:0.1; fill:none" points="1477.96,1345.04 758.36,1137.31 758.36,417.708 "></polyline>
<polyline clip-path="url(#clip922)" style="stroke:#000000; stroke-linecap:round; stroke-linejoin:round; stroke-width:2; stroke-opacity:0.1; fill:none" points="1544.08,1287.78 824.482,1080.05 824.482,360.444 "></polyline>
<polyline clip-path="url(#clip922)" style="stroke:#000000; stroke-linecap:round; stroke-linejoin:round; stroke-width:2; stroke-opacity:0.1; fill:none" points="1610.21,1230.51 890.605,1022.78 890.605,303.179 "></polyline>
<polyline clip-path="url(#clip922)" style="stroke:#000000; stroke-linecap:round; stroke-linejoin:round; stroke-width:2; stroke-opacity:0.1; fill:none" points="1676.33,1173.25 956.728,965.517 956.728,245.915 "></polyline>
<polyline clip-path="url(#clip922)" style="stroke:#000000; stroke-linecap:round; stroke-linejoin:round; stroke-width:2; stroke-opacity:0.1; fill:none" points="1742.45,1115.98 1022.85,908.253 1022.85,188.651 "></polyline>
<polyline clip-path="url(#clip922)" style="stroke:#000000; stroke-linecap:round; stroke-linejoin:round; stroke-width:2; stroke-opacity:0.1; fill:none" points="1808.58,1058.72 1088.97,850.989 1088.97,131.387 "></polyline>
<polyline clip-path="url(#clip922)" style="stroke:#000000; stroke-linecap:round; stroke-linejoin:round; stroke-width:2; stroke-opacity:0.1; fill:none" points="682.874,1186.47 1098.34,826.665 1817.94,1034.4 "></polyline>
<polyline clip-path="url(#clip922)" style="stroke:#000000; stroke-linecap:round; stroke-linejoin:round; stroke-width:2; stroke-opacity:0.1; fill:none" points="682.874,1071.94 1098.34,712.136 1817.94,919.867 "></polyline>
<polyline clip-path="url(#clip922)" style="stroke:#000000; stroke-linecap:round; stroke-linejoin:round; stroke-width:2; stroke-opacity:0.1; fill:none" points="682.874,957.409 1098.34,597.608 1817.94,805.339 "></polyline>
<polyline clip-path="url(#clip922)" style="stroke:#000000; stroke-linecap:round; stroke-linejoin:round; stroke-width:2; stroke-opacity:0.1; fill:none" points="682.874,842.881 1098.34,483.08 1817.94,690.811 "></polyline>
<polyline clip-path="url(#clip922)" style="stroke:#000000; stroke-linecap:round; stroke-linejoin:round; stroke-width:2; stroke-opacity:0.1; fill:none" points="682.874,728.353 1098.34,368.552 1817.94,576.283 "></polyline>
<polyline clip-path="url(#clip922)" style="stroke:#000000; stroke-linecap:round; stroke-linejoin:round; stroke-width:2; stroke-opacity:0.1; fill:none" points="682.874,613.824 1098.34,254.024 1817.94,461.755 "></polyline>
<polyline clip-path="url(#clip922)" style="stroke:#000000; stroke-linecap:round; stroke-linejoin:round; stroke-width:2; stroke-opacity:0.1; fill:none" points="682.874,499.296 1098.34,139.495 1817.94,347.227 "></polyline>
<polyline clip-path="url(#clip920)" style="stroke:#000000; stroke-linecap:round; stroke-linejoin:round; stroke-width:4; stroke-opacity:1; fill:none" points="682.874,1202.68 1402.48,1410.41 "></polyline>
<polyline clip-path="url(#clip920)" style="stroke:#000000; stroke-linecap:round; stroke-linejoin:round; stroke-width:4; stroke-opacity:1; fill:none" points="699.09,1207.36 704.076,1203.05 "></polyline>
<polyline clip-path="url(#clip920)" style="stroke:#000000; stroke-linecap:round; stroke-linejoin:round; stroke-width:4; stroke-opacity:1; fill:none" points="813.619,1240.42 818.604,1236.11 "></polyline>
<polyline clip-path="url(#clip920)" style="stroke:#000000; stroke-linecap:round; stroke-linejoin:round; stroke-width:4; stroke-opacity:1; fill:none" points="928.147,1273.49 933.132,1269.17 "></polyline>
<polyline clip-path="url(#clip920)" style="stroke:#000000; stroke-linecap:round; stroke-linejoin:round; stroke-width:4; stroke-opacity:1; fill:none" points="1042.68,1306.55 1047.66,1302.23 "></polyline>
<polyline clip-path="url(#clip920)" style="stroke:#000000; stroke-linecap:round; stroke-linejoin:round; stroke-width:4; stroke-opacity:1; fill:none" points="1157.2,1339.61 1162.19,1335.29 "></polyline>
<polyline clip-path="url(#clip920)" style="stroke:#000000; stroke-linecap:round; stroke-linejoin:round; stroke-width:4; stroke-opacity:1; fill:none" points="1271.73,1372.67 1276.72,1368.35 "></polyline>
<polyline clip-path="url(#clip920)" style="stroke:#000000; stroke-linecap:round; stroke-linejoin:round; stroke-width:4; stroke-opacity:1; fill:none" points="1386.26,1405.73 1391.25,1401.41 "></polyline>
<path clip-path="url(#clip920)" d="M630.038 1235.48 L659.714 1235.48 L659.714 1239.42 L630.038 1239.42 L630.038 1235.48 Z" fill="#000000" fill-rule="nonzero" fill-opacity="1"></path><path clip-path="url(#clip920)" d="M683.973 1233.68 Q687.33 1234.4 689.205 1236.67 Q691.103 1238.93 691.103 1242.27 Q691.103 1247.38 687.584 1250.18 Q684.066 1252.98 677.584 1252.98 Q675.408 1252.98 673.094 1252.54 Q670.802 1252.13 668.348 1251.27 L668.348 1246.76 Q670.293 1247.89 672.608 1248.47 Q674.922 1249.05 677.445 1249.05 Q681.844 1249.05 684.135 1247.31 Q686.45 1245.58 686.45 1242.27 Q686.45 1239.21 684.297 1237.5 Q682.168 1235.76 678.348 1235.76 L674.32 1235.76 L674.32 1231.92 L678.533 1231.92 Q681.982 1231.92 683.811 1230.55 Q685.64 1229.17 685.64 1226.57 Q685.64 1223.91 683.742 1222.5 Q681.867 1221.06 678.348 1221.06 Q676.427 1221.06 674.228 1221.48 Q672.029 1221.9 669.39 1222.78 L669.39 1218.61 Q672.052 1217.87 674.367 1217.5 Q676.705 1217.13 678.765 1217.13 Q684.089 1217.13 687.191 1219.56 Q690.293 1221.97 690.293 1226.09 Q690.293 1228.96 688.649 1230.95 Q687.006 1232.92 683.973 1233.68 Z" fill="#000000" fill-rule="nonzero" fill-opacity="1"></path><path clip-path="url(#clip920)" d="M745.516 1268.55 L775.191 1268.55 L775.191 1272.48 L745.516 1272.48 L745.516 1268.55 Z" fill="#000000" fill-rule="nonzero" fill-opacity="1"></path><path clip-path="url(#clip920)" d="M789.312 1281.44 L805.631 1281.44 L805.631 1285.37 L783.687 1285.37 L783.687 1281.44 Q786.349 1278.68 790.932 1274.06 Q795.538 1269.4 796.719 1268.06 Q798.964 1265.54 799.844 1263.8 Q800.747 1262.04 800.747 1260.35 Q800.747 1257.6 798.802 1255.86 Q796.881 1254.12 793.779 1254.12 Q791.58 1254.12 789.126 1254.89 Q786.696 1255.65 783.918 1257.2 L783.918 1252.48 Q786.742 1251.35 789.196 1250.77 Q791.65 1250.19 793.687 1250.19 Q799.057 1250.19 802.251 1252.87 Q805.446 1255.56 805.446 1260.05 Q805.446 1262.18 804.636 1264.1 Q803.849 1266 801.742 1268.59 Q801.163 1269.26 798.062 1272.48 Q794.96 1275.68 789.312 1281.44 Z" fill="#000000" fill-rule="nonzero" fill-opacity="1"></path><path clip-path="url(#clip920)" d="M859.673 1301.61 L889.349 1301.61 L889.349 1305.54 L859.673 1305.54 L859.673 1301.61 Z" fill="#000000" fill-rule="nonzero" fill-opacity="1"></path><path clip-path="url(#clip920)" d="M900.252 1314.5 L907.891 1314.5 L907.891 1288.14 L899.581 1289.8 L899.581 1285.54 L907.844 1283.88 L912.52 1283.88 L912.52 1314.5 L920.159 1314.5 L920.159 1318.44 L900.252 1318.44 L900.252 1314.5 Z" fill="#000000" fill-rule="nonzero" fill-opacity="1"></path><path clip-path="url(#clip920)" d="M1022.74 1320.02 Q1019.13 1320.02 1017.3 1323.58 Q1015.5 1327.12 1015.5 1334.25 Q1015.5 1341.36 1017.3 1344.92 Q1019.13 1348.47 1022.74 1348.47 Q1026.38 1348.47 1028.18 1344.92 Q1030.01 1341.36 1030.01 1334.25 Q1030.01 1327.12 1028.18 1323.58 Q1026.38 1320.02 1022.74 1320.02 M1022.74 1316.31 Q1028.55 1316.31 1031.61 1320.92 Q1034.69 1325.5 1034.69 1334.25 Q1034.69 1342.98 1031.61 1347.59 Q1028.55 1352.17 1022.74 1352.17 Q1016.93 1352.17 1013.85 1347.59 Q1010.8 1342.98 1010.8 1334.25 Q1010.8 1325.5 1013.85 1320.92 Q1016.93 1316.31 1022.74 1316.31 Z" fill="#000000" fill-rule="nonzero" fill-opacity="1"></path><path clip-path="url(#clip920)" d="M1129.31 1380.62 L1136.95 1380.62 L1136.95 1354.26 L1128.64 1355.92 L1128.64 1351.67 L1136.9 1350 L1141.58 1350 L1141.58 1380.62 L1149.22 1380.62 L1149.22 1384.56 L1129.31 1384.56 L1129.31 1380.62 Z" fill="#000000" fill-rule="nonzero" fill-opacity="1"></path><path clip-path="url(#clip920)" d="M1247.42 1413.69 L1263.74 1413.69 L1263.74 1417.62 L1241.8 1417.62 L1241.8 1413.69 Q1244.46 1410.93 1249.04 1406.3 Q1253.65 1401.65 1254.83 1400.31 Q1257.08 1397.78 1257.96 1396.05 Q1258.86 1394.29 1258.86 1392.6 Q1258.86 1389.84 1256.92 1388.11 Q1254.99 1386.37 1251.89 1386.37 Q1249.69 1386.37 1247.24 1387.13 Q1244.81 1387.9 1242.03 1389.45 L1242.03 1384.73 Q1244.86 1383.59 1247.31 1383.01 Q1249.76 1382.44 1251.8 1382.44 Q1257.17 1382.44 1260.36 1385.12 Q1263.56 1387.81 1263.56 1392.3 Q1263.56 1394.43 1262.75 1396.35 Q1261.96 1398.25 1259.85 1400.84 Q1259.28 1401.51 1256.17 1404.73 Q1253.07 1407.92 1247.42 1413.69 Z" fill="#000000" fill-rule="nonzero" fill-opacity="1"></path><path clip-path="url(#clip920)" d="M1371.14 1432.05 Q1374.5 1432.77 1376.37 1435.03 Q1378.27 1437.3 1378.27 1440.64 Q1378.27 1445.75 1374.75 1448.55 Q1371.23 1451.35 1364.75 1451.35 Q1362.58 1451.35 1360.26 1450.91 Q1357.97 1450.5 1355.52 1449.64 L1355.52 1445.13 Q1357.46 1446.26 1359.78 1446.84 Q1362.09 1447.42 1364.61 1447.42 Q1369.01 1447.42 1371.3 1445.68 Q1373.62 1443.95 1373.62 1440.64 Q1373.62 1437.58 1371.47 1435.87 Q1369.34 1434.13 1365.52 1434.13 L1361.49 1434.13 L1361.49 1430.29 L1365.7 1430.29 Q1369.15 1430.29 1370.98 1428.92 Q1372.81 1427.53 1372.81 1424.94 Q1372.81 1422.28 1370.91 1420.87 Q1369.04 1419.43 1365.52 1419.43 Q1363.6 1419.43 1361.4 1419.85 Q1359.2 1420.27 1356.56 1421.14 L1356.56 1416.98 Q1359.22 1416.24 1361.54 1415.87 Q1363.87 1415.5 1365.93 1415.5 Q1371.26 1415.5 1374.36 1417.93 Q1377.46 1420.33 1377.46 1424.46 Q1377.46 1427.33 1375.82 1429.32 Q1374.17 1431.28 1371.14 1432.05 Z" fill="#000000" fill-rule="nonzero" fill-opacity="1"></path><polyline clip-path="url(#clip920)" style="stroke:#000000; stroke-linecap:round; stroke-linejoin:round; stroke-width:4; stroke-opacity:1; fill:none" points="1402.48,1410.41 1817.94,1050.61 "></polyline>
<polyline clip-path="url(#clip920)" style="stroke:#000000; stroke-linecap:round; stroke-linejoin:round; stroke-width:4; stroke-opacity:1; fill:none" points="1411.84,1402.3 1403.2,1399.81 "></polyline>
<polyline clip-path="url(#clip920)" style="stroke:#000000; stroke-linecap:round; stroke-linejoin:round; stroke-width:4; stroke-opacity:1; fill:none" points="1477.96,1345.04 1469.33,1342.55 "></polyline>
<polyline clip-path="url(#clip920)" style="stroke:#000000; stroke-linecap:round; stroke-linejoin:round; stroke-width:4; stroke-opacity:1; fill:none" points="1544.08,1287.78 1535.45,1285.28 "></polyline>
<polyline clip-path="url(#clip920)" style="stroke:#000000; stroke-linecap:round; stroke-linejoin:round; stroke-width:4; stroke-opacity:1; fill:none" points="1610.21,1230.51 1601.57,1228.02 "></polyline>
<polyline clip-path="url(#clip920)" style="stroke:#000000; stroke-linecap:round; stroke-linejoin:round; stroke-width:4; stroke-opacity:1; fill:none" points="1676.33,1173.25 1667.69,1170.76 "></polyline>
<polyline clip-path="url(#clip920)" style="stroke:#000000; stroke-linecap:round; stroke-linejoin:round; stroke-width:4; stroke-opacity:1; fill:none" points="1742.45,1115.98 1733.82,1113.49 "></polyline>
<polyline clip-path="url(#clip920)" style="stroke:#000000; stroke-linecap:round; stroke-linejoin:round; stroke-width:4; stroke-opacity:1; fill:none" points="1808.58,1058.72 1799.94,1056.23 "></polyline>
<path clip-path="url(#clip920)" d="M1430.69 1424.53 L1460.37 1424.53 L1460.37 1428.46 L1430.69 1428.46 L1430.69 1424.53 Z" fill="#000000" fill-rule="nonzero" fill-opacity="1"></path><path clip-path="url(#clip920)" d="M1484.63 1422.72 Q1487.98 1423.44 1489.86 1425.71 Q1491.76 1427.98 1491.76 1431.31 Q1491.76 1436.43 1488.24 1439.23 Q1484.72 1442.03 1478.24 1442.03 Q1476.06 1442.03 1473.75 1441.59 Q1471.46 1441.17 1469 1440.31 L1469 1435.8 Q1470.95 1436.93 1473.26 1437.51 Q1475.58 1438.09 1478.1 1438.09 Q1482.5 1438.09 1484.79 1436.36 Q1487.1 1434.62 1487.1 1431.31 Q1487.1 1428.25 1484.95 1426.54 Q1482.82 1424.8 1479 1424.8 L1474.97 1424.8 L1474.97 1420.96 L1479.19 1420.96 Q1482.64 1420.96 1484.47 1419.6 Q1486.29 1418.21 1486.29 1415.61 Q1486.29 1412.95 1484.4 1411.54 Q1482.52 1410.11 1479 1410.11 Q1477.08 1410.11 1474.88 1410.52 Q1472.68 1410.94 1470.04 1411.82 L1470.04 1407.65 Q1472.71 1406.91 1475.02 1406.54 Q1477.36 1406.17 1479.42 1406.17 Q1484.74 1406.17 1487.85 1408.6 Q1490.95 1411.01 1490.95 1415.13 Q1490.95 1418 1489.3 1419.99 Q1487.66 1421.96 1484.63 1422.72 Z" fill="#000000" fill-rule="nonzero" fill-opacity="1"></path><path clip-path="url(#clip920)" d="M1496.82 1367.26 L1526.49 1367.26 L1526.49 1371.2 L1496.82 1371.2 L1496.82 1367.26 Z" fill="#000000" fill-rule="nonzero" fill-opacity="1"></path><path clip-path="url(#clip920)" d="M1540.61 1380.16 L1556.93 1380.16 L1556.93 1384.09 L1534.99 1384.09 L1534.99 1380.16 Q1537.65 1377.4 1542.23 1372.77 Q1546.84 1368.12 1548.02 1366.78 Q1550.26 1364.25 1551.14 1362.52 Q1552.05 1360.76 1552.05 1359.07 Q1552.05 1356.31 1550.1 1354.58 Q1548.18 1352.84 1545.08 1352.84 Q1542.88 1352.84 1540.43 1353.61 Q1538 1354.37 1535.22 1355.92 L1535.22 1351.2 Q1538.04 1350.06 1540.5 1349.49 Q1542.95 1348.91 1544.99 1348.91 Q1550.36 1348.91 1553.55 1351.59 Q1556.75 1354.28 1556.75 1358.77 Q1556.75 1360.9 1555.94 1362.82 Q1555.15 1364.72 1553.04 1367.31 Q1552.46 1367.98 1549.36 1371.2 Q1546.26 1374.39 1540.61 1380.16 Z" fill="#000000" fill-rule="nonzero" fill-opacity="1"></path><path clip-path="url(#clip920)" d="M1562.94 1310 L1592.61 1310 L1592.61 1313.93 L1562.94 1313.93 L1562.94 1310 Z" fill="#000000" fill-rule="nonzero" fill-opacity="1"></path><path clip-path="url(#clip920)" d="M1603.52 1322.89 L1611.16 1322.89 L1611.16 1296.53 L1602.85 1298.19 L1602.85 1293.93 L1611.11 1292.27 L1615.79 1292.27 L1615.79 1322.89 L1623.42 1322.89 L1623.42 1326.83 L1603.52 1326.83 L1603.52 1322.89 Z" fill="#000000" fill-rule="nonzero" fill-opacity="1"></path><path clip-path="url(#clip920)" d="M1641.01 1238.08 Q1637.39 1238.08 1635.57 1241.65 Q1633.76 1245.19 1633.76 1252.32 Q1633.76 1259.42 1635.57 1262.99 Q1637.39 1266.53 1641.01 1266.53 Q1644.64 1266.53 1646.45 1262.99 Q1648.27 1259.42 1648.27 1252.32 Q1648.27 1245.19 1646.45 1241.65 Q1644.64 1238.08 1641.01 1238.08 M1641.01 1234.38 Q1646.82 1234.38 1649.87 1238.98 Q1652.95 1243.57 1652.95 1252.32 Q1652.95 1261.04 1649.87 1265.65 Q1646.82 1270.23 1641.01 1270.23 Q1635.2 1270.23 1632.12 1265.65 Q1629.06 1261.04 1629.06 1252.32 Q1629.06 1243.57 1632.12 1238.98 Q1635.2 1234.38 1641.01 1234.38 Z" fill="#000000" fill-rule="nonzero" fill-opacity="1"></path><path clip-path="url(#clip920)" d="M1695.86 1208.36 L1703.49 1208.36 L1703.49 1182 L1695.18 1183.67 L1695.18 1179.41 L1703.45 1177.74 L1708.12 1177.74 L1708.12 1208.36 L1715.76 1208.36 L1715.76 1212.3 L1695.86 1212.3 L1695.86 1208.36 Z" fill="#000000" fill-rule="nonzero" fill-opacity="1"></path><path clip-path="url(#clip920)" d="M1766.93 1151.1 L1783.25 1151.1 L1783.25 1155.04 L1761.31 1155.04 L1761.31 1151.1 Q1763.97 1148.35 1768.55 1143.72 Q1773.16 1139.06 1774.34 1137.72 Q1776.58 1135.2 1777.46 1133.46 Q1778.37 1131.7 1778.37 1130.01 Q1778.37 1127.26 1776.42 1125.52 Q1774.5 1123.79 1771.4 1123.79 Q1769.2 1123.79 1766.75 1124.55 Q1764.32 1125.31 1761.54 1126.86 L1761.54 1122.14 Q1764.36 1121.01 1766.82 1120.43 Q1769.27 1119.85 1771.31 1119.85 Q1776.68 1119.85 1779.87 1122.54 Q1783.07 1125.22 1783.07 1129.71 Q1783.07 1131.84 1782.26 1133.76 Q1781.47 1135.66 1779.36 1138.25 Q1778.78 1138.92 1775.68 1142.14 Q1772.58 1145.34 1766.93 1151.1 Z" fill="#000000" fill-rule="nonzero" fill-opacity="1"></path><path clip-path="url(#clip920)" d="M1843.05 1079.14 Q1846.41 1079.85 1848.29 1082.12 Q1850.18 1084.39 1850.18 1087.72 Q1850.18 1092.84 1846.67 1095.64 Q1843.15 1098.44 1836.67 1098.44 Q1834.49 1098.44 1832.18 1098 Q1829.88 1097.59 1827.43 1096.73 L1827.43 1092.22 Q1829.37 1093.35 1831.69 1093.93 Q1834 1094.51 1836.53 1094.51 Q1840.93 1094.51 1843.22 1092.77 Q1845.53 1091.03 1845.53 1087.72 Q1845.53 1084.67 1843.38 1082.96 Q1841.25 1081.22 1837.43 1081.22 L1833.4 1081.22 L1833.4 1077.38 L1837.62 1077.38 Q1841.06 1077.38 1842.89 1076.01 Q1844.72 1074.62 1844.72 1072.03 Q1844.72 1069.37 1842.82 1067.96 Q1840.95 1066.52 1837.43 1066.52 Q1835.51 1066.52 1833.31 1066.94 Q1831.11 1067.35 1828.47 1068.23 L1828.47 1064.07 Q1831.13 1063.33 1833.45 1062.96 Q1835.79 1062.59 1837.85 1062.59 Q1843.17 1062.59 1846.27 1065.02 Q1849.37 1067.42 1849.37 1071.54 Q1849.37 1074.41 1847.73 1076.41 Q1846.09 1078.37 1843.05 1079.14 Z" fill="#000000" fill-rule="nonzero" fill-opacity="1"></path><polyline clip-path="url(#clip920)" style="stroke:#000000; stroke-linecap:round; stroke-linejoin:round; stroke-width:4; stroke-opacity:1; fill:none" points="682.874,1202.68 682.874,483.08 "></polyline>
<polyline clip-path="url(#clip920)" style="stroke:#000000; stroke-linecap:round; stroke-linejoin:round; stroke-width:4; stroke-opacity:1; fill:none" points="682.874,1186.47 687.86,1182.15 "></polyline>
<polyline clip-path="url(#clip920)" style="stroke:#000000; stroke-linecap:round; stroke-linejoin:round; stroke-width:4; stroke-opacity:1; fill:none" points="682.874,1071.94 687.86,1067.62 "></polyline>
<polyline clip-path="url(#clip920)" style="stroke:#000000; stroke-linecap:round; stroke-linejoin:round; stroke-width:4; stroke-opacity:1; fill:none" points="682.874,957.409 687.86,953.091 "></polyline>
<polyline clip-path="url(#clip920)" style="stroke:#000000; stroke-linecap:round; stroke-linejoin:round; stroke-width:4; stroke-opacity:1; fill:none" points="682.874,842.881 687.86,838.563 "></polyline>
<polyline clip-path="url(#clip920)" style="stroke:#000000; stroke-linecap:round; stroke-linejoin:round; stroke-width:4; stroke-opacity:1; fill:none" points="682.874,728.353 687.86,724.035 "></polyline>
<polyline clip-path="url(#clip920)" style="stroke:#000000; stroke-linecap:round; stroke-linejoin:round; stroke-width:4; stroke-opacity:1; fill:none" points="682.874,613.824 687.86,609.507 "></polyline>
<polyline clip-path="url(#clip920)" style="stroke:#000000; stroke-linecap:round; stroke-linejoin:round; stroke-width:4; stroke-opacity:1; fill:none" points="682.874,499.296 687.86,494.979 "></polyline>
<path clip-path="url(#clip920)" d="M593.01 1186.92 L622.685 1186.92 L622.685 1190.85 L593.01 1190.85 L593.01 1186.92 Z" fill="#000000" fill-rule="nonzero" fill-opacity="1"></path><path clip-path="url(#clip920)" d="M646.945 1185.11 Q650.301 1185.83 652.176 1188.1 Q654.074 1190.37 654.074 1193.7 Q654.074 1198.81 650.556 1201.62 Q647.037 1204.42 640.556 1204.42 Q638.38 1204.42 636.065 1203.98 Q633.773 1203.56 631.32 1202.7 L631.32 1198.19 Q633.264 1199.32 635.579 1199.9 Q637.894 1200.48 640.417 1200.48 Q644.815 1200.48 647.107 1198.75 Q649.421 1197.01 649.421 1193.7 Q649.421 1190.64 647.269 1188.93 Q645.139 1187.19 641.32 1187.19 L637.292 1187.19 L637.292 1183.35 L641.505 1183.35 Q644.954 1183.35 646.783 1181.99 Q648.611 1180.6 648.611 1178 Q648.611 1175.34 646.713 1173.93 Q644.838 1172.5 641.32 1172.5 Q639.398 1172.5 637.199 1172.91 Q635 1173.33 632.361 1174.21 L632.361 1170.04 Q635.023 1169.3 637.338 1168.93 Q639.676 1168.56 641.736 1168.56 Q647.06 1168.56 650.162 1170.99 Q653.264 1173.4 653.264 1177.52 Q653.264 1180.39 651.62 1182.38 Q649.977 1184.35 646.945 1185.11 Z" fill="#000000" fill-rule="nonzero" fill-opacity="1"></path><path clip-path="url(#clip920)" d="M593.959 1072.39 L623.634 1072.39 L623.634 1076.32 L593.959 1076.32 L593.959 1072.39 Z" fill="#000000" fill-rule="nonzero" fill-opacity="1"></path><path clip-path="url(#clip920)" d="M637.755 1085.28 L654.074 1085.28 L654.074 1089.22 L632.13 1089.22 L632.13 1085.28 Q634.792 1082.53 639.375 1077.9 Q643.982 1073.25 645.162 1071.9 Q647.408 1069.38 648.287 1067.64 Q649.19 1065.88 649.19 1064.19 Q649.19 1061.44 647.245 1059.7 Q645.324 1057.97 642.222 1057.97 Q640.023 1057.97 637.57 1058.73 Q635.139 1059.5 632.361 1061.05 L632.361 1056.32 Q635.185 1055.19 637.639 1054.61 Q640.093 1054.03 642.13 1054.03 Q647.5 1054.03 650.695 1056.72 Q653.889 1059.4 653.889 1063.89 Q653.889 1066.02 653.079 1067.94 Q652.292 1069.84 650.185 1072.43 Q649.607 1073.11 646.505 1076.32 Q643.403 1079.52 637.755 1085.28 Z" fill="#000000" fill-rule="nonzero" fill-opacity="1"></path><path clip-path="url(#clip920)" d="M593.588 957.86 L623.264 957.86 L623.264 961.796 L593.588 961.796 L593.588 957.86 Z" fill="#000000" fill-rule="nonzero" fill-opacity="1"></path><path clip-path="url(#clip920)" d="M634.167 970.754 L641.806 970.754 L641.806 944.388 L633.496 946.055 L633.496 941.796 L641.759 940.129 L646.435 940.129 L646.435 970.754 L654.074 970.754 L654.074 974.689 L634.167 974.689 L634.167 970.754 Z" fill="#000000" fill-rule="nonzero" fill-opacity="1"></path><path clip-path="url(#clip920)" d="M642.13 828.68 Q638.519 828.68 636.69 832.244 Q634.884 835.786 634.884 842.916 Q634.884 850.022 636.69 853.587 Q638.519 857.128 642.13 857.128 Q645.764 857.128 647.57 853.587 Q649.398 850.022 649.398 842.916 Q649.398 835.786 647.57 832.244 Q645.764 828.68 642.13 828.68 M642.13 824.976 Q647.94 824.976 650.995 829.582 Q654.074 834.166 654.074 842.916 Q654.074 851.642 650.995 856.249 Q647.94 860.832 642.13 860.832 Q636.32 860.832 633.241 856.249 Q630.185 851.642 630.185 842.916 Q630.185 834.166 633.241 829.582 Q636.32 824.976 642.13 824.976 Z" fill="#000000" fill-rule="nonzero" fill-opacity="1"></path><path clip-path="url(#clip920)" d="M634.167 741.698 L641.806 741.698 L641.806 715.332 L633.496 716.999 L633.496 712.739 L641.759 711.073 L646.435 711.073 L646.435 741.698 L654.074 741.698 L654.074 745.633 L634.167 745.633 L634.167 741.698 Z" fill="#000000" fill-rule="nonzero" fill-opacity="1"></path><path clip-path="url(#clip920)" d="M637.755 627.169 L654.074 627.169 L654.074 631.104 L632.13 631.104 L632.13 627.169 Q634.792 624.415 639.375 619.785 Q643.982 615.132 645.162 613.79 Q647.408 611.267 648.287 609.531 Q649.19 607.771 649.19 606.081 Q649.19 603.327 647.245 601.591 Q645.324 599.855 642.222 599.855 Q640.023 599.855 637.57 600.619 Q635.139 601.382 632.361 602.933 L632.361 598.211 Q635.185 597.077 637.639 596.498 Q640.093 595.919 642.13 595.919 Q647.5 595.919 650.695 598.605 Q653.889 601.29 653.889 605.781 Q653.889 607.91 653.079 609.831 Q652.292 611.73 650.185 614.322 Q649.607 614.993 646.505 618.211 Q643.403 621.405 637.755 627.169 Z" fill="#000000" fill-rule="nonzero" fill-opacity="1"></path><path clip-path="url(#clip920)" d="M646.945 497.942 Q650.301 498.66 652.176 500.928 Q654.074 503.197 654.074 506.53 Q654.074 511.646 650.556 514.447 Q647.037 517.248 640.556 517.248 Q638.38 517.248 636.065 516.808 Q633.773 516.391 631.32 515.535 L631.32 511.021 Q633.264 512.155 635.579 512.734 Q637.894 513.312 640.417 513.312 Q644.815 513.312 647.107 511.576 Q649.421 509.84 649.421 506.53 Q649.421 503.474 647.269 501.762 Q645.139 500.025 641.32 500.025 L637.292 500.025 L637.292 496.183 L641.505 496.183 Q644.954 496.183 646.783 494.817 Q648.611 493.428 648.611 490.836 Q648.611 488.174 646.713 486.762 Q644.838 485.326 641.32 485.326 Q639.398 485.326 637.199 485.743 Q635 486.16 632.361 487.039 L632.361 482.873 Q635.023 482.132 637.338 481.762 Q639.676 481.391 641.736 481.391 Q647.06 481.391 650.162 483.822 Q653.264 486.229 653.264 490.35 Q653.264 493.22 651.62 495.211 Q649.977 497.178 646.945 497.942 Z" fill="#000000" fill-rule="nonzero" fill-opacity="1"></path><polyline clip-path="url(#clip922)" style="stroke:#009af9; stroke-linecap:round; stroke-linejoin:round; stroke-width:20; stroke-opacity:1; fill:none" points="1252.87,627.342 1257.8,623.607 1262.7,620.427 1267.55,617.813 1272.33,615.776 1277.03,614.323 1281.62,613.46 1286.1,613.191 1290.44,613.516 1294.62,614.434 1298.63,615.943 1302.45,618.034 1306.08,620.702 1309.48,623.935 1312.66,627.721 1315.6,632.045 1318.29,636.891 1320.71,642.239 1322.86,648.069 1324.73,654.359 1326.31,661.085 1327.6,668.219 1328.6,675.735 1329.28,683.603 1329.67,691.794 1329.74,700.275 1329.51,709.013 1328.98,717.975 1328.14,727.126 1327,736.431 1325.56,745.854 1323.83,755.358 1321.82,764.906 1319.53,774.462 1316.98,783.988 1314.16,793.448 1311.1,802.805 1307.81,812.023 1304.29,821.066 1300.56,829.899 1296.65,838.489 1292.55,846.801 1288.29,854.804 1283.88,862.466 1279.34,869.759 1274.69,876.653 1269.95,883.123 1265.13,889.143 1260.25,894.69 1255.34,899.742 1250.41,904.28 1245.47,908.286 1240.56,911.745 1235.68,914.644 1230.86,916.97 1226.12,918.716 1221.47,919.874 1216.93,920.441 1212.53,920.413 1208.27,919.791 1204.17,918.577 1200.25,916.776 1196.52,914.395 1193.01,911.443 1189.71,907.932 1186.65,903.875 1183.84,899.288 1181.28,894.189 1178.99,888.597 1176.98,882.533 1175.25,876.023 1173.82,869.09 1172.68,861.761 1171.83,854.065 1171.3,846.032 1171.07,837.692 1171.15,829.078 1171.53,820.224 1172.22,811.162 1173.21,801.93 1174.5,792.562 1176.08,783.094 1177.95,773.564 1180.1,764.007 1182.53,754.461 1185.21,744.964 1188.15,735.551 1191.33,726.259 1194.74,717.124 1198.36,708.181 1202.18,699.466 1206.2,691.011 1210.38,682.849 1214.71,675.013 1219.19,667.531 1223.78,660.434 1228.48,653.749 1233.27,647.501 1238.12,641.715 1243.01,636.413 1247.94,631.616 "></polyline>
</svg>